<svg id="Layer_1" data-name="Layer 1" xmlns="http://www.w3.org/2000/svg" viewBox="0 0 1958.52 540.84"><defs><style>.cls-1{fill:#eb212e;}.cls-2{fill:#12529c;}</style></defs><path class="cls-1" d="M237.1,352.58h43.2A126.17,126.17,0,0,0,323,345.3q20.43-7.28,33.81-19.37t16.44-26.17q-9.63,8.91-29.35,14.08T297.21,319q-22.79,0-38-11.51t-15.26-28.92l.94-7.77q3.75-19.53,24-36.48T320,207.74a216.8,216.8,0,0,1,64.8-9.65A94.86,94.86,0,0,1,406,200.44a92.21,92.21,0,0,1,18.67,6.35q18.07,8.46,27.7,23.27A58.27,58.27,0,0,1,462,262.49a59.42,59.42,0,0,1-1.4,12.93q-4.47,20.68-25.95,40.19t-55.29,34.32a323,323,0,0,1-74,21.86q16.68,3.52,61.52,26.56A150.08,150.08,0,0,0,436.2,415L404,439.22q-21.6,14.55-39,14.55a34.6,34.6,0,0,1-14.32-3.28l-26.3-14.56Q304.25,424.2,286.64,415q-55.17-28.65-73.49-28.65Zm98.61-58q18.78,0,35.45-15.38a70.46,70.46,0,0,0,15.28-20c6.48-12.8-2-28.45-16.27-29.35-.46,0-.91,0-1.35,0a42.27,42.27,0,0,0-20.43,5.51,54.59,54.59,0,0,0-17.26,14.91,51,51,0,0,0-9.51,20.43Q321.62,294.6,335.71,294.59Z"/><path class="cls-1" d="M621,199.33l-5.63,29.44H466.47a36.69,36.69,0,0,1,36-29.44ZM463.46,400.93c2.34-11.21,8.5-29.08,12-44.35s5.95-26.32,7.51-33.18q9.68-40.31,17.2-66.22a21,21,0,0,1,12.22-13.67q24.81-10.06,61.21-10.06-6.81,22.2-20.19,76.86c-6.91,29.28-18,68.85-26.65,109.44a34.15,34.15,0,0,1-23.39,25.51q-26.83,8.25-36.58,8.24-12.45,0-12.44-9.58Q459.94,417.76,463.46,400.93Z"/><path class="cls-1" d="M650,248q23.34-8.73,59.47-8.73Q701,267.1,689.06,316.63q-6.33,26.16-8.21,34.81-.95,3.74-8.69,39.25c-.56,2.34-5.59,15.12-8.56,29.06a34.19,34.19,0,0,1-23.38,25.51q-26.81,8.25-36.36,8.24-12.45,0-12.45-9.58C606.32,370.77,623.67,307,636.94,262A21.4,21.4,0,0,1,650,248Zm25.89-115.39q20.43-19,52.48-31.54t70.08-12.5q7.51,0,13.15.23t8.92.7q30.3,3.27,51,8.88a157.44,157.44,0,0,1,38.27,15.89,217,217,0,0,1,18.43,12.15q10,7.25,19.61,15.18,20,16.83,51.18,46a17.93,17.93,0,0,1-6.1,2.81c-2,.46-4.78,1-8.22,1.51s-7.44,1.21-12,2l-8.74,1.5a54.12,54.12,0,0,1-20.49-.41h0a54,54,0,0,1-22.78-10.88q-40.09-32.55-61.87-46.4-24.42-15.54-38.15-17.06a217,217,0,0,0-23.13-1.52q-50.16,0-68.61,35.48a24.49,24.49,0,0,0,9.64,32.83l.28.15L698,199.57h50.47l-5.87,29.2H608.06l5.64-29.2h55.41l-.36-.24A34.42,34.42,0,0,1,659,152.52,100.82,100.82,0,0,1,675.91,132.63Z"/><path class="cls-1" d="M770.65,323.05Q818.2,284.84,883,259.15t117.86-25.7q12.21,0,20.08,7.24t7.86,19.16c-9.71,31.71-25.82,89.26-41.82,163.37a34.21,34.21,0,0,1-25.25,26,164.71,164.71,0,0,1-39.27,4.31q-7.51,0-7.51-9.59c16.9-79.23,34.1-141.33,45.06-177a143,143,0,0,0-42.5,6.78q-17.85,5.63-40.15,17.08,13.15,2.34,20.66,14t7.52,28.07a51.18,51.18,0,0,1-.47,6.43q-.48,3.63-1.41,9-6.35,28.55-26.06,52.87a143.62,143.62,0,0,1-48.14,38.48Q801.05,453.77,771,453.77a66.28,66.28,0,0,1-22.54-3.62,57.91,57.91,0,0,1-18.08-10.39q-15.72-13.32-15.72-33.65l.94-10.05Q723.1,361.25,770.65,323.05ZM745.88,199.33h326.59l-5.87,29.44H740.25Zm55.88,197.9q0,22.9,10.1,22.9,13.85,0,28.52-22.55t21-54.09a59.27,59.27,0,0,0,1.4-11.91q0-18.22-12.44-26.4Q833.21,315.92,821,334.73a120.12,120.12,0,0,0-16.9,42.41A101.29,101.29,0,0,0,801.76,397.23Z"/><path class="cls-1" d="M1079,307.39a171.22,171.22,0,0,1,58.23-43.57,166.85,166.85,0,0,1,70.91-15.89q21.6,0,32.87,4.67L1253,286l5.9-25.64a21.27,21.27,0,0,1,12.41-14.83,154.88,154.88,0,0,1,61.05-12.1q-6.81,22.2-20.19,76.86c-6.91,29.38-18,68.92-26.61,109.35a34.15,34.15,0,0,1-23.68,25.58q-27.84,8.26-41.49,8.26-6.81,0-6.81-14.48l20.17-71.46a175,175,0,0,1-27.24,27.57A193.26,193.26,0,0,1,1190.22,407a165.29,165.29,0,0,1-16.55,9.59,180.74,180.74,0,0,1-35.81,13.19,148.8,148.8,0,0,1-36.28,4.56q-23.24,0-38.85-15.3t-15.62-38.2a67.57,67.57,0,0,1,1.41-13.32Q1055.09,335.09,1079,307.39Zm-8.92-108.06h300.06l-5.64,29.44h-300Zm56.82,163.79q0,10.75,5,17.17a16,16,0,0,0,13.26,6.43,65.51,65.51,0,0,0,19.38-3.16,148,148,0,0,0,21.95-9l-23.95-69.39q-27.95,19.86-34.28,47.89A39.81,39.81,0,0,0,1126.94,363.12Zm110.82-74.3q-9.15-2.81-23.24-2.8-20.67,0-29.82,4.9,23.94,61.69,28.88,69.39,26.76-25,35-64.71C1247.46,292.64,1243.87,290.38,1237.76,288.82Z"/><path class="cls-1" d="M1507.29,199.33l-5.63,29.44H1342.94l5.87-29.44ZM1353,396.3q3.53-16.83,8.69-39.72t7.51-33.18q9.67-40.31,17.2-66.21a21.43,21.43,0,0,1,12.72-13.89q24.67-9.86,60.71-9.85-6.81,22.2-20.19,76.86c-6.91,29.28-18,68.85-26.65,109.44a34.15,34.15,0,0,1-23.39,25.51q-26.84,8.25-36.58,8.24-12.43,0-12.44-9.58C1344.38,426.48,1350.69,407.51,1353,396.3Z"/><path class="cls-1" d="M1500,199.33h245.35a36.46,36.46,0,0,1-35.8,29.21h-48.73q23.17,8.79,33.92,21.88c9.93,12.09,10.41,29.15,1.92,42.29a94.28,94.28,0,0,1-17.52,19.58q-20.19,17.54-51.3,30.76a305.58,305.58,0,0,1-67.74,19.53c24.19,10.32,40.18,22.91,56,38.66,15,14.5,46.69,16.55,57.65,16.55l5.87-.7,14.32-1.87q-47.9,33.64-75.13,33.65-38.28,0-77.71-40.66-36.16-36-54.95-36a34.21,34.21,0,0,0-17.84,4.91L1488,338.82a159.8,159.8,0,0,0,26.06,2.34,137.46,137.46,0,0,0,46.37-8q22.42-8,37.22-21.66T1616,281.22q0-21.3-12.32-35t-34.4-17.68h-74.9Z"/><path class="cls-2" d="M1444.35,118h-70.52v0H1252.16v10.56h11.94v9.79c-4.32.53-6.84.86-7.67,1l-.22,0-.18.11a5.7,5.7,0,0,1-.74.36A24.57,24.57,0,0,0,1248,124.6a23.16,23.16,0,0,0-16.76-6.62,35,35,0,0,0-13,2.18l2.28-2.18h-22.19v10.57l11.32-.13,1.67-1.61,2.08,10.26,1.42-1c5.81-4.11,11.76-6.14,17.67-6.09a9.85,9.85,0,0,1,7.72,3.74,12.92,12.92,0,0,1,3.11,8.61,17.38,17.38,0,0,1-4.17,11.09c-5.18-5.84-10.47-8.79-15.75-8.79h-.19a19.74,19.74,0,0,0-11.74,3.89,13.39,13.39,0,0,0-5.52,11c0,4.68,1.52,8.31,4.51,10.77s6.77,3.63,11.44,3.63a30.21,30.21,0,0,0,14.37-3.46,35.61,35.61,0,0,1,4.28,16.7v1.7l12.33-5.15v-.76c0-6.15-2.23-12.71-6.63-19.51a34.29,34.29,0,0,0,7.46-11.5,101.71,101.71,0,0,1,10.39-2.58v39.4h11.78V128.54h37.68a87,87,0,0,1,2.25,11.17,35.45,35.45,0,0,0-17.49,5.54c-6.21,4.11-9.32,9.75-9.24,16.77a14,14,0,0,0,5.52,11.15A17.93,17.93,0,0,0,1306,177h.39c7.13-.15,12.68-2.95,16.49-8.33,3.11-4.4,4.84-10.06,5.14-16.81l7.21.38,2.39.31v36.2h11.78V128.54h11.28v60h10.43v-60h52.39v28.68a13,13,0,0,1-4,9.62,13.14,13.14,0,0,1-9.56,3.92,13.29,13.29,0,0,1-9.69-3.92,13.64,13.64,0,0,1,0-19.24,13.28,13.28,0,0,1,9.69-3.91h8V133.23h-39v10.43h11.3a23.78,23.78,0,0,0,19.66,37.5,22.79,22.79,0,0,0,13.61-4.35v11.61h10.43V128.51h11.18v60h10.43v-60h12.16a15.77,15.77,0,0,1,10.31,3.35,12.16,12.16,0,0,1,4.47,9.81q0,13.54-15.52,13.54h-4.22l.25,10.43a27.17,27.17,0,0,1,5.09-.5,21.32,21.32,0,0,1,14.21,5.09,16.41,16.41,0,0,1,6,13.16,20.09,20.09,0,0,1-.74,5.34h10.8a29.15,29.15,0,0,0,.37-4.59,30.28,30.28,0,0,0-5.21-17.39q-4.23-6.21-8.94-7.94,8.31-7.45,8.32-17.14,0-6.57-4.84-13.16h19.49V118h-63.2Zm-223,44c-3.11-.07-3.53-1.36-3.53-2.62a3.82,3.82,0,0,1,1-2.86c.81-.8,2.21-1.2,4.16-1.2h.26c.88,0,2.86.69,6.57,5.06A21,21,0,0,1,1221.37,162Zm92.18-1.95c-1.72,3.09-4.11,4.55-7.28,4.5-1.77,0-3-.39-3.62-1a1.94,1.94,0,0,1-.46-1.46h0c.06-3,1.75-5.39,5.17-7.33a24.66,24.66,0,0,1,8.5-2.78A19.68,19.68,0,0,1,1313.55,160Zm24.06-19.65a31.28,31.28,0,0,0-4.57-.62c-1.81-.06-3.63-.15-5.43-.26a103.34,103.34,0,0,0-1.81-10.86l11.81-.09Z"/><path class="cls-2" d="M1745.18,117.88h-91.64V118h-62.41a4.63,4.63,0,0,1-4-1.83,5,5,0,0,1-.27-4.68,7.81,7.81,0,0,1,3.81-4.08,24.06,24.06,0,0,1,9.46-2.84,30.19,30.19,0,0,1,3.66-.11c15.24,1.28,27.66,12.52,27.66,12.52H1633l.07,0v0l5.91,0c-5.45-9.26-15.68-15-15.68-15h0a52.65,52.65,0,0,0-22.9-8.52c-7.93-.87-14.42,1-18.28,5.21-3.69,4.06-4.85,10-3.36,17.14.16.76.14,1.25,0,1.47s-.87.3-1.55.29c-5.35-.06-11.42-.13-17.34,0-1.7.06-2.07-.72-2.64-2.2A84.83,84.83,0,0,0,1546,95.65a21.64,21.64,0,0,0-8.59-6.92c-3.08-1.44-5.24-2.16-6.51-1.27s-1.35,3.1-1.09,6.43c.35,4.44,3.12,7,7.62,7h.15a5.27,5.27,0,0,1,3.49,1.37,33.3,33.3,0,0,1,8.24,10.92l-3.19-2c-4.85-3.06-9.88-6.22-15.07-8.89a37.34,37.34,0,0,0-13.06-3.8,3.4,3.4,0,0,0-2.68.43,3.08,3.08,0,0,0-.72,2.45c.06,4.8,2.1,8.24,6.39,10.82,1.57.94,2.81,1.49,4.45-.13a5.45,5.45,0,0,1,5.49-1.39,39.47,39.47,0,0,1,13.31,6.91h-29V118h-.54v10.53h.14v.05h33.48l0,0,.12.25h1.77v5.79a24.88,24.88,0,0,0-6-.74,24.24,24.24,0,0,0-17.14,41.35,24.22,24.22,0,0,0,31.29,2.48v10.83h10.06V153.64h-10.8c.25,2.15.37,3.64.37,4.47a13.42,13.42,0,0,1-4,9.75,13.83,13.83,0,0,1-19.56-19.56,13.38,13.38,0,0,1,9.75-4,12.43,12.43,0,0,1,6.7,2.36h9.69V128.56h17.68a4.24,4.24,0,0,1,.39,2.29c0,7.56,0,15.25,0,22.69,0,10.83,0,22-.13,33a6.6,6.6,0,0,0,.26,2.1h9.39a6.35,6.35,0,0,0,.26-2.15c-.16-11-.15-22.19-.14-33,0-7.33,0-14.9,0-22.35,0-1.43.15-2.21.55-2.66h55.59c.49.54.54,1.78.63,4l0,.59a3.19,3.19,0,0,1-.51,2.37c-.48.49-1.38.58-2.7.55-8.07-.13-16.33-.13-25.24,0a21.34,21.34,0,0,0-21.33,22.72,21.32,21.32,0,0,0,7.66,15.51,21.91,21.91,0,0,0,17.1,4.85,21.78,21.78,0,0,0,18.36-26,17.63,17.63,0,0,0-1.68-4.22,26.7,26.7,0,0,1-1.3-2.86l1.81,0a38.16,38.16,0,0,0,5-.1,2.87,2.87,0,0,1,2.19.35c.42.39.59,1.14.57,2.54-.05,5.35,0,10.8,0,16.07,0,7.07,0,14.39-.13,21.57a6.87,6.87,0,0,0,.25,2.19h9.47a6.75,6.75,0,0,0,.3-2.34c-.18-10.71-.17-21.6-.16-32.13,0-7.48,0-15.22,0-22.84,0-1.57.15-2.38.57-2.85h39v6.67a36.55,36.55,0,0,0-5.83-2.4v0a22.28,22.28,0,0,0-6.33-.91,22.62,22.62,0,0,0-16.52,6.76,23.41,23.41,0,0,0-.06,33,23.83,23.83,0,0,0,28.75,3.35V188.2h10.42V152.88a12.35,12.35,0,0,1,4.29-7.33,12.47,12.47,0,1,1,8,22,13.92,13.92,0,0,1-6.71-1.61v11.67a17.05,17.05,0,0,0,6.71,1.36,22,22,0,0,0,16.45-7,23.4,23.4,0,0,0,6.77-16.83,23.1,23.1,0,0,0-23.22-23.21,23.73,23.73,0,0,0-12.3,3.47v-6.86h40.51v-.67h0v-10ZM1625.7,166.32a12.39,12.39,0,0,1-8.93,3.53c-6.6-.08-11.58-5.58-11.6-12.79a10.45,10.45,0,0,1,3-7.58,13.24,13.24,0,0,1,9.52-3.48h0a11.45,11.45,0,0,1,8.37,3.24,12.41,12.41,0,0,1-.35,17.08Zm64.46-1.57a12.36,12.36,0,0,1-7.94,2.78,12.19,12.19,0,0,1-8.88-3.6,12.45,12.45,0,0,1,0-17.63,12.19,12.19,0,0,1,8.88-3.6,11.59,11.59,0,0,1,6.67,2l.24.17,0,0a19.4,19.4,0,0,1,5.21,6.24v6.32A11.39,11.39,0,0,1,1690.16,164.75Z"/></svg>